<svg width="379" height="96" viewBox="0 0 379 96" fill="none" xmlns="http://www.w3.org/2000/svg">
<path d="M181.581 92.9247H111.652V9.26606L121.936 0V84.3293H170.363C170.363 84.3293 173.314 89.0232 181.581 92.9247Z" fill="white"/>
<path d="M260.08 18.8166L252.703 25.3597C247.409 20.4829 241.594 16.7642 235.28 14.2445C228.966 11.7248 222.805 10.4649 216.816 10.4649C209.353 10.4649 202.258 12.1922 195.51 15.606C188.762 19.0401 183.533 23.6935 179.845 29.566C176.135 35.4386 174.29 41.6363 174.29 48.1794C174.29 54.7226 176.2 61.2454 180.04 67.2805C183.88 73.3156 189.175 78.0503 195.944 81.5047C202.713 84.9592 210.112 86.6864 218.183 86.6864C227.968 86.6864 236.235 84.1057 243.004 78.9444C249.774 73.783 253.788 67.0773 255.024 58.8476H245.955L238.752 50.2521H265.677C265.591 64.0089 261.23 74.9413 252.594 83.0287C243.959 91.1162 232.395 95.16 217.923 95.16C200.348 95.16 186.419 89.5516 176.156 78.3348C168.28 69.6986 164.332 59.701 164.332 48.3623C164.332 39.9294 166.588 32.0857 171.123 24.8111C175.657 17.5567 181.863 11.867 189.739 7.76234C197.615 3.65764 206.554 1.62561 216.491 1.62561C224.54 1.62561 232.134 2.98707 239.251 5.70999C246.367 8.43291 253.289 12.8018 260.058 18.8166H260.08Z" fill="white"/>
<path d="M95.748 18.8166L88.3711 25.3597C83.0771 20.4829 77.2623 16.7642 70.9486 14.2445C64.6348 11.7248 58.4729 10.4649 52.4846 10.4649C45.0209 10.4649 37.926 12.1922 31.1783 15.606C24.4306 19.0401 19.2017 23.6935 15.5132 29.566C11.8031 35.4386 9.95884 41.6363 9.95884 48.1794C9.95884 54.7226 11.8682 61.2454 15.7085 67.2805C19.5488 73.3156 24.8428 78.0503 31.6123 81.5047C38.3817 84.9592 45.7803 86.6864 53.8515 86.6864C63.6367 86.6864 71.9032 84.1057 78.6726 78.9444C85.442 73.783 89.4559 67.0773 90.6927 58.8476H81.6234L74.4201 50.2521H101.346C101.259 64.0089 96.898 74.9413 88.2626 83.0287C79.6273 91.1162 68.0629 95.16 53.5911 95.16C36.0167 95.16 22.0874 89.5516 11.8248 78.3348C3.94882 69.6986 0 59.701 0 48.3623C0 39.9294 2.25647 32.0857 6.7911 24.8111C11.3257 17.5567 17.531 11.867 25.407 7.76234C33.2829 3.65764 42.222 1.62561 52.1591 1.62561C60.2087 1.62561 67.8025 2.98707 74.9191 5.70999C82.0356 8.43291 88.9569 12.8018 95.7263 18.8166H95.748Z" fill="white"/>
<path d="M365.418 20.4016L357.911 25.7864C353.767 20.747 348.798 16.9268 343.005 14.3055C337.212 11.7045 330.833 10.404 323.912 10.404C316.318 10.404 309.31 12.1109 302.844 15.5247C296.379 18.9385 291.367 23.5106 287.808 29.2612C284.25 35.0119 282.471 41.4737 282.471 48.6671C282.471 59.5182 286.441 68.581 294.404 75.8557C302.367 83.11 312.391 86.7474 324.498 86.7474C337.82 86.7474 348.95 81.8705 357.911 72.0964L365.418 77.4203C360.688 83.0694 354.765 87.4383 347.67 90.5269C340.575 93.6156 332.656 95.16 323.912 95.16C307.27 95.16 294.144 89.9783 284.532 79.5946C276.483 70.8366 272.447 60.27 272.447 47.8746C272.447 34.829 277.329 23.8763 287.092 14.976C296.856 6.07576 309.093 1.62561 323.782 1.62561C332.656 1.62561 340.684 3.27156 347.822 6.56344C354.96 9.85533 360.84 14.468 365.396 20.4016H365.418Z" fill="white"/>
<path d="M379 87.7227L371.015 81.5047V67.4024H353.115L343.135 59.9246H379V87.7227Z" fill="#062230"/>
</svg>
